<svg id="visual" viewBox="0 0 1920 950" width="1920" height="950" xmlns="http://www.w3.org/2000/svg" xmlns:xlink="http://www.w3.org/1999/xlink" version="1.1"><rect x="0" y="0" width="1920" height="950" fill="#000000"></rect><path d="M0 742L175 742L175 719L349 719L349 658L524 658L524 710L698 710L698 695L873 695L873 728L1047 728L1047 702L1222 702L1222 679L1396 679L1396 728L1571 728L1571 718L1745 718L1745 709L1920 709L1920 743L1920 951L1920 951L1745 951L1745 951L1571 951L1571 951L1396 951L1396 951L1222 951L1222 951L1047 951L1047 951L873 951L873 951L698 951L698 951L524 951L524 951L349 951L349 951L175 951L175 951L0 951Z" fill="#00ceff"></path><path d="M0 825L175 825L175 863L349 863L349 802L524 802L524 845L698 845L698 792L873 792L873 780L1047 780L1047 810L1222 810L1222 792L1396 792L1396 807L1571 807L1571 783L1745 783L1745 823L1920 823L1920 861L1920 951L1920 951L1745 951L1745 951L1571 951L1571 951L1396 951L1396 951L1222 951L1222 951L1047 951L1047 951L873 951L873 951L698 951L698 951L524 951L524 951L349 951L349 951L175 951L175 951L0 951Z" fill="#00638c"></path></svg>